# xmcd
#
# Track frame offsets:
#	150
#	18287
#	36475
#	62865
#
# Disc length: 1631 seconds
#
# Revision: 0
# Processed by: cddbd v1.5.2PL0 Copyright (c) Steve Scherf et al.
# Submitted via: EasyCDDAExtractor 2011.0.0.0
#
DISCID=30065d04
DTITLE=Jay-Z - Izzo (H.O.V.A.)
DYEAR=2001
DGENRE=Hip-Hop
TTITLE0=Izzo (H.O.V.A.) (LP Version)
TTITLE1=Izzo (H.O.V.A.) (Radio Edit)
TTITLE2=You Don't Know (LP Version)
TTITLE3=Video
EXTD=
EXTT0=
EXTT1=
EXTT2=
EXTT3=
PLAYORDER=
